HIERARCHY
ROOT Hips
{
	OFFSET 0.00000 0.00000 0.00000
	CHANNELS 6 Xposition Yposition Zposition Zrotation Yrotation Xrotation 
	JOINT LHipJoint
	{
		OFFSET 0 0 0
		CHANNELS 3 Zrotation Yrotation Xrotation
		JOINT LeftUpLeg
		{
			OFFSET 1.34019 -1.87553 0.90315
			CHANNELS 3 Zrotation Yrotation Xrotation
			JOINT LeftLeg
			{
				OFFSET 2.55316 -7.01474 0.00000
				CHANNELS 3 Zrotation Yrotation Xrotation
				JOINT LeftFoot
				{
					OFFSET 2.64657 -7.27139 0.00000
					CHANNELS 3 Zrotation Yrotation Xrotation
					JOINT LeftToeBase
					{
						OFFSET 0.24207 -0.66507 2.14489
						CHANNELS 3 Zrotation Yrotation Xrotation
						End Site
						{
							OFFSET 0.00000 -0.00000 1.12451
						}
					}
				}
			}
		}
	}
	JOINT RHipJoint
	{
		OFFSET 0 0 0
		CHANNELS 3 Zrotation Yrotation Xrotation
		JOINT RightUpLeg
		{
			OFFSET -1.28320 -1.87553 0.90315
			CHANNELS 3 Zrotation Yrotation Xrotation
			JOINT RightLeg
			{
				OFFSET -2.60484 -7.15674 0.00000
				CHANNELS 3 Zrotation Yrotation Xrotation
				JOINT RightFoot
				{
					OFFSET -2.60296 -7.15159 0.00000
					CHANNELS 3 Zrotation Yrotation Xrotation
					JOINT RightToeBase
					{
						OFFSET -0.31082 -0.85398 2.28998
						CHANNELS 3 Zrotation Yrotation Xrotation
						End Site
						{
							OFFSET -0.00000 -0.00000 1.21611
						}
					}
				}
			}
		}
	}
	JOINT LowerBack
	{
		OFFSET 0 0 0
		CHANNELS 3 Zrotation Yrotation Xrotation
		JOINT Spine
		{
			OFFSET -0.00160 2.05581 -0.15156
			CHANNELS 3 Zrotation Yrotation Xrotation
			JOINT Spine1
			{
				OFFSET 0.04594 2.06326 -0.01617
				CHANNELS 3 Zrotation Yrotation Xrotation
				JOINT Neck
				{
					OFFSET 0 0 0
					CHANNELS 3 Zrotation Yrotation Xrotation
					JOINT Neck1
					{
						OFFSET 0.03753 1.73883 0.26751
						CHANNELS 3 Zrotation Yrotation Xrotation
						JOINT Head
						{
							OFFSET -0.09795 1.76129 -0.31794
							CHANNELS 3 Zrotation Yrotation Xrotation
							End Site
							{
								OFFSET -0.03611 1.79987 -0.13846
							}
						}
					}
				}
				JOINT LeftShoulder
				{
					OFFSET 0 0 0
					CHANNELS 3 Zrotation Yrotation Xrotation
					JOINT LeftArm
					{
						OFFSET 3.30667 1.29205 -0.22445
						CHANNELS 3 Zrotation Yrotation Xrotation
						JOINT LeftForeArm
						{
							OFFSET 4.92785 -0.00000 -0.00000
							CHANNELS 3 Zrotation Yrotation Xrotation
							JOINT LeftHand
							{
								OFFSET 3.44052 -0.00000 0.00000
								CHANNELS 3 Zrotation Yrotation Xrotation
								JOINT LeftFingerBase
								{
									OFFSET 0 0 0
									CHANNELS 3 Zrotation Yrotation Xrotation
									JOINT LeftHandIndex1
									{
										OFFSET 0.65433 -0.00000 0.00000
										CHANNELS 3 Zrotation Yrotation Xrotation
										End Site
										{
											OFFSET 0.52753 -0.00000 0.00000
										}
									}
								}
								JOINT LThumb
								{
									OFFSET 0 0 0
									CHANNELS 3 Zrotation Yrotation Xrotation
									End Site
									{
										OFFSET 0.53559 -0.00000 0.53559
									}
								}
							}
						}
					}
				}
				JOINT RightShoulder
				{
					OFFSET 0 0 0
					CHANNELS 3 Zrotation Yrotation Xrotation
					JOINT RightArm
					{
						OFFSET -3.20032 1.49783 -0.27688
						CHANNELS 3 Zrotation Yrotation Xrotation
						JOINT RightForeArm
						{
							OFFSET -5.09181 -0.00000 -0.00000
							CHANNELS 3 Zrotation Yrotation Xrotation
							JOINT RightHand
							{
								OFFSET -3.49865 -0.00000 -0.00000
								CHANNELS 3 Zrotation Yrotation Xrotation
								JOINT RightFingerBase
								{
									OFFSET 0 0 0
									CHANNELS 3 Zrotation Yrotation Xrotation
									JOINT RightHandIndex1
									{
										OFFSET -0.66641 -0.00000 0.00000
										CHANNELS 3 Zrotation Yrotation Xrotation
										End Site
										{
											OFFSET -0.53728 -0.00000 0.00000
										}
									}
								}
								JOINT RThumb
								{
									OFFSET 0 0 0
									CHANNELS 3 Zrotation Yrotation Xrotation
									End Site
									{
										OFFSET -0.54548 -0.00000 0.54548
									}
								}
							}
						}
					}
				}
			}
		}
	}
}
MOTION
Frames: 11
Frame Time: .0083333
0.0432 17.9315 -29.8205 0 0 0 0 0 0 -21 0 0 0 0 0 0 0 0 0 0 0 0 0 0 21 0 0 0 0 0 0 0 0 0 0 0 0 0 0 0 0 0 0 0 0 0 0 -16 0 0 21 0 0 11 0 0 0 -8 0 0 0 0 0 0 0 0 0 0 0 0 0 0 0 0 0 0 0 0 8 0 0 0 0 0 0 0 0 0 0 0 0 0 0 0 0 0
0.0432 17.9315 -29.8205 -1.2592 2.8438 2.0669 0.0000 0.0000 0.0000 -16.1717 -4.4032 -7.5669 2.0053 8.8771 25.4118 0.0029 11.5025 -16.4118 0.1201 -2.2344 -6.1538 0.0000 0.0000 0.0000 21.3271 -0.1651 -12.3667 -2.6105 -10.0361 29.0938 -0.4516 -10.4756 -20.4988 -0.0040 -0.4093 1.1247 -1.9085 -0.8769 3.4816 2.7960 -1.1669 -2.0336 4.0479 -0.4893 -3.9582 9.0844 1.7600 -21.9536 -8.0083 1.2676 17.2831 -4.1024 0.2958 9.1493 -0.0000 0.0000 0.0000 -87.5667 5.6544 21.7329 13.6778 -22.2722 -2.7048 -0.0000 0.0000 -5.5517 13.7856 0.2680 0.0658 -7.1250 0.0000 -0.0000 -10.0639 30.1736 3.6931 -0.0000 0.0000 0.0000 83.4271 -6.7404 4.3060 -12.7786 20.9620 -2.3735 0.0000 -0.0000 -1.6756 -13.2448 -1.9336 0.4550 7.1250 -0.0000 -0.0000 10.6808 -31.8475 3.4901
0.0372 17.9308 -29.8089 -1.2736 2.8659 2.0429 0.0000 0.0000 0.0000 -16.1684 -4.4907 -7.4793 2.0003 8.8668 25.3795 -0.0318 11.7720 -16.3066 0.1244 -2.2738 -6.2630 0.0000 0.0000 0.0000 21.3782 -0.1801 -12.2752 -2.6056 -10.0275 29.0658 -0.4575 -10.5050 -20.5900 -0.0044 -0.4289 1.1784 -1.9544 -0.8068 3.4542 2.8262 -1.0876 -0.9475 4.0800 -0.4838 -2.8229 8.4691 1.9150 -26.0130 -7.4666 1.2606 18.2807 -3.8745 0.2560 10.2047 -0.0000 0.0000 0.0000 -87.5031 3.0169 21.9524 13.3864 -21.8508 -2.5954 -0.0000 0.0000 -5.4376 13.9697 0.7221 0.1796 -7.1250 0.0000 -0.0000 -9.9683 30.6371 3.5448 -0.0000 0.0000 0.0000 83.4782 -4.3534 3.5723 -12.6537 20.7777 -2.3290 0.0000 -0.0000 -1.3511 -13.1377 -1.9249 0.4492 7.1250 -0.0000 -0.0000 10.7646 -31.8360 3.5214
0.0349 17.9301 -29.7986 -1.2714 2.7504 2.0124 0.0000 0.0000 0.0000 -16.2052 -4.5318 -7.3703 2.0008 8.8677 25.3824 -0.0491 12.0087 -16.4077 0.1190 -2.2244 -6.1261 0.0000 0.0000 0.0000 21.3783 -0.2393 -12.2177 -2.6021 -10.0211 29.0452 -0.4605 -10.4146 -20.5275 -0.0035 -0.3834 1.0535 -1.9210 -0.6846 3.3524 2.8094 -0.9380 0.2672 4.0166 -0.4487 -1.5275 8.1418 2.0505 -30.5065 -7.2250 1.1842 19.3528 -3.8259 0.1720 11.3695 -0.0000 0.0000 0.0000 -87.5429 0.4695 22.0024 13.2238 -21.6142 -2.5351 -0.0000 0.0000 -5.1962 13.7836 0.6846 0.1679 -7.1250 0.0000 -0.0000 -10.1101 30.5959 3.6068 -0.0000 0.0000 0.0000 83.5743 -1.6714 2.6559 -12.4823 20.5240 -2.2686 0.0000 -0.0000 -0.9539 -13.0278 -1.8119 0.4192 7.1250 -0.0000 -0.0000 10.8375 -31.7192 3.5770
0.0334 17.9306 -29.7903 -1.2900 2.5492 2.0294 0.0000 0.0000 0.0000 -16.2176 -4.5553 -7.3029 2.0008 8.8677 25.3823 -0.0694 12.2479 -16.4743 0.1160 -2.1957 -6.0469 0.0000 0.0000 0.0000 21.3921 -0.2150 -12.2117 -2.5981 -10.0140 29.0222 -0.4654 -10.2861 -20.4458 -0.0033 -0.3708 1.0189 -1.9184 -0.7800 3.1955 2.8262 -1.0517 -0.7051 4.0482 -0.4767 -2.4307 8.4632 1.9311 -26.5130 -7.4127 1.2348 18.4204 -3.8670 0.2441 10.3396 -0.0000 0.0000 0.0000 -87.6005 2.9018 22.0497 13.3994 -21.8696 -2.6002 -0.0000 0.0000 -5.0397 14.1190 0.3153 0.0793 -7.1250 0.0000 -0.0000 -9.8082 30.2265 3.5841 -0.0000 0.0000 0.0000 83.5297 -4.0230 3.4957 -12.7092 20.8597 -2.3487 0.0000 -0.0000 -1.4431 -13.1770 -1.6924 0.3962 7.1250 -0.0000 -0.0000 10.7046 -31.6025 3.5624
0.0301 17.9307 -29.7809 -1.3180 2.4125 2.0358 0.0000 0.0000 0.0000 -16.2056 -4.5837 -7.2390 2.0020 8.8702 25.3901 -0.0854 12.4401 -16.5381 0.1133 -2.1700 -5.9758 0.0000 0.0000 0.0000 21.4328 -0.1872 -12.1753 -2.5942 -10.0073 29.0002 -0.4680 -10.2241 -20.4090 -0.0030 -0.3549 0.9751 -1.9053 -0.7861 3.0777 2.8429 -1.0589 -0.6530 4.0552 -0.4832 -2.3101 8.4447 1.9466 -26.5636 -7.3659 1.2500 18.4830 -3.8465 0.2555 10.3721 -0.0000 0.0000 0.0000 -87.6295 2.9128 22.1267 13.3953 -21.8636 -2.5986 -0.0000 0.0000 -4.8902 14.2708 0.2083 0.0530 -7.1250 0.0000 -0.0000 -9.6787 30.1198 3.5606 -0.0000 0.0000 0.0000 83.5365 -4.0073 3.5722 -12.7615 20.9368 -2.3674 0.0000 -0.0000 -1.5332 -13.2079 -1.5450 0.3626 7.1250 -0.0000 -0.0000 10.6623 -31.4545 3.5864
0.0266 17.9312 -29.7716 -1.3460 2.2758 2.0510 0.0000 0.0000 0.0000 -16.1862 -4.5956 -7.1856 2.0026 8.8715 25.3943 -0.0962 12.5859 -16.6068 0.1101 -2.1392 -5.8904 0.0000 0.0000 0.0000 21.4750 -0.1447 -12.1454 -2.5909 -10.0014 28.9812 -0.4701 -10.1707 -20.3763 -0.0028 -0.3399 0.9340 -1.8947 -0.7990 2.9664 2.8558 -1.0742 -0.6998 4.0618 -0.4906 -2.2943 8.4760 1.9473 -26.2912 -7.3538 1.2597 18.4989 -3.8431 0.2681 10.3313 -0.0000 0.0000 0.0000 -87.6477 3.1330 22.2131 13.4102 -21.8853 -2.6042 -0.0000 0.0000 -4.7475 14.4450 0.0599 0.0154 -7.1250 0.0000 -0.0000 -9.5278 29.9710 3.5380 -0.0000 0.0000 0.0000 83.5469 -4.2165 3.7405 -12.8419 21.0552 -2.3962 0.0000 -0.0000 -1.6771 -13.2448 -1.3773 0.3241 7.1250 -0.0000 -0.0000 10.6130 -31.2860 3.6130
0.0229 17.9316 -29.7623 -1.3624 2.1563 2.0724 0.0000 0.0000 0.0000 -16.1715 -4.5958 -7.1388 2.0016 8.8695 25.3879 -0.1029 12.6859 -16.6658 0.1073 -2.1123 -5.8161 0.0000 0.0000 0.0000 21.5061 -0.0998 -12.1199 -2.5880 -9.9962 28.9644 -0.4720 -10.1294 -20.3548 -0.0025 -0.3253 0.8937 -1.9083 -0.8232 2.8658 2.8755 -1.1050 -0.7811 4.0906 -0.5042 -2.3183 8.5080 1.9493 -25.9365 -7.3541 1.2814 18.5180 -3.8418 0.2860 10.2784 -0.0000 -0.0000 0.0000 -87.6750 3.3995 22.2864 13.4304 -21.9147 -2.6118 -0.0000 0.0000 -4.6228 14.6468 -0.0582 -0.0152 -7.1250 0.0000 -0.0000 -9.3589 29.8530 3.5004 -0.0000 -0.0000 0.0000 83.5365 -4.4978 3.9829 -12.9421 21.2023 -2.4323 0.0000 -0.0000 -1.8650 -13.2714 -1.2300 0.2901 7.1250 -0.0000 -0.0000 10.5744 -31.1378 3.6378
0.0194 17.9322 -29.7532 -1.3590 2.0603 2.0967 0.0000 0.0000 0.0000 -16.1727 -4.5891 -7.0967 1.9990 8.8640 25.3707 -0.1060 12.7440 -16.7126 0.1051 -2.0901 -5.7548 0.0000 0.0000 0.0000 21.5147 -0.0696 -12.1031 -2.5860 -9.9925 28.9526 -0.4745 -10.0919 -20.3419 -0.0023 -0.3088 0.8485 -1.9484 -0.8464 2.7850 2.8969 -1.1364 -0.7944 4.1354 -0.5196 -2.2829 8.5133 1.9671 -25.9095 -7.3440 1.3089 18.6437 -3.8377 0.3019 10.3217 -0.0000 -0.0000 0.0000 -87.7093 3.4794 22.3528 13.4426 -21.9323 -2.6163 -0.0000 0.0000 -4.5288 14.8604 -0.1034 -0.0274 -7.1250 0.0000 -0.0000 -9.1880 29.8092 3.4447 -0.0000 -0.0000 0.0000 83.5156 -4.6086 4.1984 -13.0392 21.3446 -2.4675 0.0000 -0.0000 -2.0537 -13.2773 -1.1192 0.2641 7.1250 -0.0000 -0.0000 10.5568 -31.0260 3.6603
0.0166 17.9326 -29.7443 -1.3445 1.9682 2.1170 0.0000 0.0000 0.0000 -16.1849 -4.5709 -7.0511 1.9947 8.8551 25.3431 -0.1074 12.7820 -16.7509 0.1035 -2.0740 -5.7103 0.0000 0.0000 0.0000 21.5070 -0.0540 -12.0891 -2.5844 -9.9898 28.9438 -0.4776 -10.0458 -20.3274 -0.0020 -0.2897 0.7959 -1.9991 -0.8662 2.7132 2.9153 -1.1638 -0.8085 4.1832 -0.5328 -2.2534 8.5161 1.9803 -25.8906 -7.3318 1.3297 18.7754 -3.8337 0.3148 10.3681 0.0000 -0.0000 0.0000 -87.7447 3.5509 22.4071 13.4556 -21.9510 -2.6211 -0.0000 0.0000 -4.4285 15.1007 -0.1342 -0.0362 -7.1250 0.0000 -0.0000 -8.9977 29.7802 3.3780 0.0000 -0.0000 0.0000 83.4941 -4.7150 4.3949 -13.1377 21.4886 -2.5035 0.0000 -0.0000 -2.2365 -13.2636 -1.0358 0.2441 7.1250 -0.0000 -0.0000 10.5579 -30.9416 3.6824
0.0141 17.9329 -29.7352 -1.3296 1.8945 2.1258 0.0000 0.0000 0.0000 -16.1934 -4.5447 -6.9966 1.9897 8.8447 25.3106 -0.1066 12.7932 -16.7799 0.1023 -2.0623 -5.6778 0.0000 0.0000 0.0000 21.4987 -0.0561 -12.0641 -2.5825 -9.9864 28.9327 -0.4810 -10.0038 -20.3208 -0.0018 -0.2709 0.7442 -2.0556 -0.8945 2.6540 2.9418 -1.2024 -0.8275 4.2433 -0.5513 -2.2347 8.5125 1.9959 -25.8535 -7.3257 1.3594 18.9042 -3.8293 0.3308 10.4110 0.0000 -0.0000 0.0000 -87.7959 3.6312 22.4363 13.4736 -21.9772 -2.6279 -0.0000 0.0000 -4.3702 15.3315 -0.1619 -0.0444 -7.1250 0.0000 -0.0000 -8.8153 29.7541 3.3136 0.0000 -0.0000 0.0000 83.4543 -4.8314 4.6098 -13.2395 21.6371 -2.5409 0.0000 -0.0000 -2.4352 -13.2375 -0.9881 0.2324 7.1250 -0.0000 -0.0000 10.5729 -30.8929 3.7004
